<svg xmlns="http://www.w3.org/2000/svg" viewBox="0 0 400 300" role="img">
<rect width="400" height="300" fill="#e0852e"/>
<circle cx="338" cy="58" r="74" fill="#ecae5a"/>
<g opacity="0.5" fill="#f4e9d6">
<circle cx="40" cy="250" r="4"/><circle cx="64" cy="262" r="4"/><circle cx="40" cy="274" r="4"/>
<circle cx="360" cy="250" r="4"/><circle cx="336" cy="262" r="4"/><circle cx="360" cy="274" r="4"/>
</g>
<g>
<path d="M200 198 C158 162 150 132 176 120 C192 112 200 126 200 138 C200 126 208 112 224 120 C250 132 242 162 200 198 Z" fill="#f4e9d6"/>
<path d="M150 200 q22 28 50 28" fill="none" stroke="#f4e9d6" stroke-width="9" stroke-linecap="round"/>
<path d="M250 200 q-22 28 -50 28" fill="none" stroke="#f4e9d6" stroke-width="9" stroke-linecap="round"/>
</g>
</svg>
