<svg xmlns="http://www.w3.org/2000/svg" viewBox="0 12 446 512" role="img" aria-label="Emblema Quintal das Pretas: árvore ancestral com folhas grafadas dentro de um círculo">
<circle cx="224" cy="235" r="195" fill="#e0852e"/>
<g transform="translate(0.000000,531.000000) scale(0.100000,-0.100000)"
fill="#56341e" stroke="none">
<path d="M2174 4553 c-38 -5 -41 -15 -34 -111 l5 -73 88 89 89 89 -32 7 c-33
6 -60 6 -116 -1z"/>
<path d="M2041 4518 c-23 -12 -23 -13 -16 -118 4 -58 10 -111 14 -118 5 -8 16
-2 39 21 l33 34 -3 94 c-3 86 -5 94 -23 96 -11 1 -31 -3 -44 -9z"/>
<path d="M2260 4449 c-41 -44 -76 -83 -78 -88 -3 -8 150 -4 177 5 10 3 12 17
6 62 -8 72 -15 102 -24 101 -3 0 -40 -36 -81 -80z"/>
<path d="M1935 4444 c-61 -61 -80 -113 -79 -224 1 -140 6 -144 86 -62 l67 67
-7 124 c-4 80 -11 126 -19 128 -6 2 -28 -13 -48 -33z m17 -171 c7 -27 -2 -43
-23 -43 -14 0 -19 7 -19 30 0 23 5 30 19 30 10 0 21 -8 23 -17z"/>
<path d="M2764 4421 c-2 -2 -4 -26 -4 -53 l0 -48 -50 0 -50 0 0 -89 0 -88 -61
-7 c-34 -3 -83 -6 -108 -6 l-46 0 3 -81 c3 -56 -1 -100 -13 -142 -14 -51 -16
-84 -10 -192 10 -197 -8 -266 -112 -427 -26 -40 -68 -111 -94 -157 l-47 -85
-7 40 c-4 21 -40 127 -80 234 -122 328 -155 460 -155 622 l0 77 69 0 c112 0
170 22 248 94 37 34 83 101 83 122 0 3 -61 5 -136 5 l-135 0 -52 -52 c-103
-104 -125 -138 -132 -203 -6 -52 3 -169 21 -285 l6 -35 -20 30 c-52 82 -213
156 -272 125 -20 -11 -22 -17 -18 -83 9 -172 121 -296 268 -297 61 0 72 -5 89
-37 10 -21 61 -198 61 -216 0 -5 -17 4 -37 20 -21 16 -90 62 -153 101 -116 71
-202 149 -314 285 -43 51 -51 57 -86 57 -21 0 -51 -5 -67 -10 -25 -9 -26 -9
-10 4 10 8 43 17 74 21 31 4 62 9 69 12 8 3 14 38 19 101 3 53 8 114 11 135
l6 37 -42 0 c-46 0 -104 -26 -137 -62 -17 -18 -22 -39 -27 -107 -5 -92 -16
-122 -16 -45 0 101 11 155 34 164 31 12 86 79 86 104 0 11 -51 6 -85 -8 -40
-17 -59 -48 -50 -83 6 -25 5 -25 -21 6 -29 34 -91 67 -139 73 -29 3 -30 1 -36
-42 -6 -45 -6 -45 -7 -7 -1 23 -7 37 -15 37 -9 0 -16 -37 -25 -127 -18 -196
-25 -176 69 -202 45 -11 101 -34 124 -50 l43 -29 39 18 c21 10 54 21 74 24 36
6 38 5 77 -56 61 -97 114 -151 271 -278 216 -174 268 -236 309 -370 24 -79 37
-187 28 -234 l-7 -35 -45 34 c-25 19 -75 51 -112 72 -122 67 -184 116 -235
183 -24 33 -25 39 -16 80 18 77 6 180 -27 239 -16 29 -33 52 -39 53 -5 0 -23
-40 -38 -89 l-29 -90 51 -76 c55 -82 59 -90 36 -85 -9 2 -34 32 -58 68 l-42
65 -103 3 c-56 1 -102 -1 -102 -6 0 -17 91 -94 134 -113 23 -10 68 -21 99 -25
58 -7 72 -19 116 -103 13 -23 13 -24 -25 -16 -66 12 -179 64 -251 115 -105 74
-248 202 -246 220 1 8 7 43 13 76 5 34 7 76 4 93 l-6 31 -124 0 c-68 0 -123
-3 -123 -7 1 -5 48 -51 104 -103 94 -87 120 -120 96 -120 -14 0 -111 88 -297
273 -94 93 -174 165 -177 160 -4 -5 -5 -48 -4 -94 2 -69 7 -94 30 -141 70
-142 214 -227 387 -228 l65 -1 120 -114 120 -115 -45 1 c-25 0 -67 4 -95 9
-29 4 -51 4 -53 -1 -2 -5 -20 -9 -41 -9 -30 0 -48 -9 -90 -45 -29 -25 -57 -45
-62 -45 -17 0 -9 16 21 45 39 37 38 45 -4 45 -28 0 -48 -11 -97 -52 -82 -70
-87 -74 -96 -64 -4 4 16 29 45 55 28 26 52 51 52 54 0 12 -118 8 -126 -4 -11
-18 -96 -69 -105 -63 -17 10 -9 20 31 43 22 12 40 26 40 32 0 5 -21 10 -47 10
-27 1 -65 3 -85 4 -48 3 -50 -15 -8 -73 66 -91 173 -139 287 -129 80 8 191 64
236 119 21 27 38 38 57 38 56 0 383 -104 440 -140 13 -8 13 -9 0 -14 -39 -12
-70 -15 -70 -7 0 21 -82 41 -166 41 -75 0 -91 3 -132 27 -26 15 -51 33 -55 40
-4 7 -19 13 -33 13 -38 0 -27 -29 21 -55 44 -25 56 -45 28 -45 -10 0 -50 -15
-90 -34 -70 -34 -103 -65 -103 -98 0 -17 9 -21 68 -33 39 -8 40 -14 5 -55 -32
-39 -24 -59 33 -79 75 -26 247 13 348 80 45 30 96 100 96 132 0 11 14 17 56
23 161 20 301 -51 379 -190 69 -124 92 -313 59 -487 -39 -207 -122 -309 -295
-364 -74 -23 -136 -31 -424 -55 -212 -18 -285 -41 -375 -121 -24 -22 -29 -30
-15 -26 11 3 49 15 85 25 68 20 330 38 330 23 0 -4 -34 -34 -75 -66 -69 -55
-165 -162 -165 -185 0 -16 16 -11 36 12 19 22 155 113 209 140 41 21 125 30
125 13 0 -7 -6 -18 -14 -25 -17 -13 -43 -89 -81 -230 -38 -141 -40 -158 -19
-181 17 -19 18 -18 50 70 17 49 46 116 65 148 45 79 151 183 219 215 112 52
121 48 66 -30 -38 -52 -50 -79 -156 -347 -40 -99 -75 -186 -78 -194 -13 -33
23 0 86 79 37 47 72 83 77 80 6 -3 11 -70 12 -155 1 -82 2 -156 3 -162 0 -7 7
-13 15 -13 8 0 19 17 25 43 6 23 13 49 16 57 3 8 9 89 14 180 11 213 35 285
132 396 44 50 150 126 161 115 4 -4 9 -59 9 -122 2 -141 -22 -234 -92 -364
-26 -49 -57 -124 -68 -165 -21 -77 -36 -276 -22 -285 4 -2 15 32 24 78 38 191
89 304 134 295 15 -3 17 -18 14 -168 -4 -168 3 -224 45 -355 16 -53 43 -93 43
-65 0 8 -7 75 -16 148 -11 86 -14 136 -7 143 11 11 70 -108 108 -219 14 -39
31 -68 40 -70 8 -2 15 0 15 3 0 17 -53 180 -74 228 -70 160 -85 479 -34 714 6
29 14 53 17 53 4 0 19 -52 33 -116 22 -92 36 -130 72 -187 25 -40 57 -104 72
-142 26 -65 28 -82 31 -245 4 -184 8 -224 22 -215 10 5 17 51 47 268 9 70 21
127 25 127 5 0 9 -2 9 -4 0 -16 73 -243 81 -250 17 -18 20 2 10 61 -5 32 -15
91 -21 131 -14 96 -63 196 -153 309 -79 101 -103 149 -116 236 -11 69 -1 173
16 170 28 -6 139 -80 192 -129 67 -62 100 -121 129 -231 11 -40 38 -104 61
-142 24 -38 55 -104 71 -146 16 -43 32 -80 36 -84 11 -10 -4 90 -37 251 -12
54 -19 103 -17 109 2 7 32 -21 67 -62 72 -85 130 -139 150 -139 11 0 10 5 -3
22 -8 13 -46 75 -83 138 -99 170 -189 308 -240 368 -25 29 -42 56 -39 60 11
10 135 -25 203 -59 124 -60 224 -185 251 -314 17 -80 31 -112 42 -95 20 31 10
101 -30 205 -22 58 -40 107 -40 110 0 15 37 -2 140 -64 63 -39 118 -67 123
-64 11 7 -133 154 -220 225 -35 29 -63 56 -63 61 0 10 54 3 148 -20 56 -14 72
-24 142 -89 113 -107 120 -100 30 34 -33 50 -60 95 -60 102 0 15 109 3 179
-21 71 -25 79 -24 52 5 -54 58 -162 85 -471 121 -467 53 -553 105 -642 388
-21 64 -23 92 -22 252 0 160 3 187 22 239 48 128 126 215 246 272 66 32 81 35
162 35 121 0 143 -9 144 -61 0 -39 43 -121 85 -163 21 -21 61 -50 89 -64 95
-49 273 -41 346 16 l25 20 -25 9 c-14 5 -57 25 -97 45 -39 19 -74 33 -76 31
-2 -3 3 -24 11 -47 10 -27 12 -51 7 -63 -7 -16 -9 -14 -17 16 -24 93 -34 115
-58 127 -33 17 -36 3 -16 -73 10 -36 12 -62 6 -68 -12 -12 -15 -3 -38 99 -16
70 -21 81 -45 89 -14 5 -29 7 -32 4 -3 -3 6 -35 20 -72 29 -77 30 -86 11 -86
-9 0 -21 22 -31 58 -40 139 -34 129 -86 152 -27 11 -49 25 -49 30 0 14 15 12
57 -5 50 -21 61 -20 155 20 78 33 108 38 108 16 0 -5 -11 -12 -25 -15 -52 -13
-135 -48 -135 -56 0 -5 9 -14 20 -20 15 -8 37 -4 100 20 73 29 109 32 95 10
-3 -5 -34 -18 -70 -30 -36 -12 -65 -26 -65 -31 0 -21 55 -21 113 0 48 17 62
19 68 9 6 -9 -6 -17 -41 -27 -28 -7 -50 -17 -50 -22 0 -8 115 -70 167 -90 25
-9 26 -9 19 32 -11 68 -60 152 -122 208 -104 92 -228 111 -347 53 -72 -36 -76
-36 -131 -21 l-39 11 29 17 c41 24 182 82 295 122 l96 33 59 -53 c185 -167
444 -159 554 17 16 26 30 52 30 59 0 9 -72 10 -300 6 -274 -5 -300 -5 -300 11
0 13 10 16 49 16 72 0 92 11 178 95 l78 76 -65 -3 c-84 -5 -144 -34 -226 -111
-63 -58 -112 -81 -238 -111 -28 -7 -28 -7 15 43 24 28 73 97 109 154 l65 105
105 4 c122 4 175 24 251 95 65 60 91 125 97 241 3 68 2 92 -7 92 -7 0 -39 -23
-71 -51 l-59 -51 -3 -102 -3 -101 -37 1 c-37 1 -38 0 -38 -32 0 -24 -5 -34
-15 -34 -10 0 -15 11 -15 35 0 34 -1 35 -38 35 -33 0 -46 -8 -94 -55 -52 -51
-78 -67 -78 -46 0 4 25 31 55 59 51 48 55 55 55 97 l0 45 -46 0 c-27 0 -43 4
-39 10 3 6 24 10 46 10 39 0 39 0 39 40 l0 40 96 0 96 0 64 62 c35 33 64 65
64 69 0 17 -76 31 -140 27 -130 -10 -235 -84 -294 -207 -28 -59 -31 -77 -33
-169 l-3 -103 -52 -77 c-76 -110 -220 -253 -288 -285 -52 -25 -161 -58 -169
-51 -1 1 13 29 33 61 20 32 36 63 36 69 0 6 22 10 50 10 28 0 56 6 62 12 9 9
9 12 -3 12 -7 0 -31 5 -52 11 l-37 10 15 29 c14 27 14 30 -4 40 -11 5 -32 10
-47 10 -15 0 -24 3 -20 8 4 4 29 7 54 7 l46 0 25 63 c19 49 28 61 40 56 9 -4
44 -14 78 -23 l62 -17 -39 -79 c-47 -95 -118 -173 -192 -209 -46 -24 -49 -26
-20 -22 96 16 179 94 248 233 26 52 45 95 43 97 -2 2 -31 8 -64 14 -108 19
-127 31 -105 72 8 15 3 22 -38 46 -26 15 -69 43 -95 62 -40 28 -51 32 -58 21
-24 -39 -61 -173 -66 -241 -7 -87 9 -146 54 -198 l25 -30 -59 -58 c-44 -41
-92 -73 -179 -117 -77 -39 -138 -78 -175 -112 l-57 -53 -6 31 c-11 57 -6 233
9 304 32 148 89 224 280 366 144 107 181 143 283 273 l70 89 138 1 c117 1 146
4 182 21 l43 20 -90 89 -89 89 -93 -96 c-75 -79 -96 -96 -114 -91 -19 5 -31
-7 -80 -78 -89 -127 -164 -191 -307 -265 l-55 -29 5 131 c2 71 5 131 6 132 1
1 17 -2 36 -6 33 -7 35 -9 35 -47 l0 -39 50 -3 c37 -2 62 3 94 20 60 31 72 51
44 77 -39 37 -39 74 1 140 41 68 58 84 82 79 30 -5 26 -25 -10 -46 -19 -11
-42 -32 -51 -46 -16 -24 -16 -28 -1 -51 9 -14 26 -25 38 -25 l22 0 -22 16
c-33 23 -24 54 26 87 30 20 42 35 42 52 0 23 -31 51 -43 39 -3 -3 -14 0 -25 7
-18 11 -24 10 -42 -6 -24 -22 -55 -11 -55 20 0 29 30 41 67 27 20 -7 36 -8 42
-2 11 11 -32 30 -67 30 -64 0 -94 -79 -39 -102 15 -7 28 -13 30 -14 5 -3 -37
-84 -43 -84 -2 0 -2 13 1 30 6 25 3 30 -19 35 -35 9 -130 -20 -164 -49 -26
-23 -27 -25 -11 -43 9 -10 21 -30 27 -46 12 -30 4 -34 -30 -17 -17 10 -19 22
-19 125 0 62 3 120 6 129 4 12 20 16 55 16 l49 0 0 65 0 64 62 3 61 3 -2 86
-2 87 100 7 101 7 0 74 0 74 -37 1 c-21 0 -53 1 -71 2 -19 1 -36 0 -38 -2z
m86 -72 c0 -19 -5 -29 -15 -29 -15 0 -22 50 -9 63 12 12 24 -4 24 -34z m-645
-175 c0 -10 -8 -20 -17 -22 -18 -3 -26 27 -11 42 12 11 28 0 28 -20z m-95 -4
c0 -13 -7 -20 -20 -20 -13 0 -20 7 -20 20 0 13 7 20 20 20 13 0 20 -7 20 -20z
m40 -70 c0 -13 -7 -20 -20 -20 -13 0 -20 7 -20 20 0 13 7 20 20 20 13 0 20 -7
20 -20z m-90 -10 c0 -13 -7 -20 -20 -20 -13 0 -20 7 -20 20 0 13 7 20 20 20
13 0 20 -7 20 -20z m470 -45 c0 -16 -6 -25 -15 -25 -9 0 -15 9 -15 25 0 16 6
25 15 25 9 0 15 -9 15 -25z m-1320 -160 c16 -8 34 -24 40 -35 9 -17 8 -20 -8
-20 -17 0 -49 28 -66 58 -9 16 -1 15 34 -3z m-133 -72 c-2 -16 -4 -3 -4 27 0
30 2 43 4 28 2 -16 2 -40 0 -55z m350 32 c-28 -25 -67 -34 -67 -15 0 13 50 39
75 39 18 0 17 -2 -8 -24z m1763 -65 c-22 -14 -84 48 -68 67 9 12 18 8 47 -22
30 -29 33 -37 21 -45z m-1972 -5 c28 -26 33 -35 19 -35 -9 0 -34 16 -55 35
-28 26 -33 35 -19 35 9 0 34 -16 55 -35z m191 -20 c-8 -7 -27 -17 -44 -21 -30
-7 -30 -7 -11 14 16 19 54 33 65 25 3 -2 -2 -10 -10 -18z m294 8 c3 -5 -1 -14
-9 -21 -12 -11 -14 -9 -14 8 0 20 14 27 23 13z m894 -9 c-3 -3 -12 -4 -19 -1
-8 3 -5 6 6 6 11 1 17 -2 13 -5z m-1469 -57 c31 -9 66 -23 77 -31 15 -11 7
-11 -35 4 -30 10 -67 21 -82 25 -23 4 -28 10 -27 33 1 21 3 22 6 6 3 -16 18
-25 61 -37z m1542 45 c0 -11 -66 -42 -90 -42 -24 0 -37 20 -13 21 10 0 34 6
53 13 44 17 50 18 50 8z m-933 -54 c-2 -13 -8 -32 -12 -42 -5 -11 -3 -32 3
-50 11 -29 10 -30 -4 -11 -12 15 -14 32 -9 70 4 28 7 59 6 70 0 18 1 18 10 3
5 -10 8 -28 6 -40z m1873 -8 c0 -11 -7 -20 -15 -20 -8 0 -15 9 -15 20 0 11 7
20 15 20 8 0 15 -9 15 -20z m-70 -15 c0 -16 -6 -25 -15 -25 -9 0 -15 9 -15 25
0 16 6 25 15 25 9 0 15 -9 15 -25z m-72 -2 c-5 -25 -28 -28 -28 -4 0 12 6 21
16 21 9 0 14 -7 12 -17z m-1654 -21 c2 -4 -8 -8 -22 -7 -21 0 -27 -5 -26 -22
0 -12 -3 -20 -8 -17 -4 3 -8 16 -8 30 0 20 5 24 29 24 17 0 32 -4 35 -8z m872
-7 c-11 -8 -25 -15 -30 -15 -6 1 0 7 14 15 32 19 40 18 16 0z m1012 -47 c-7
-20 -48 -23 -48 -4 0 11 9 16 26 16 16 0 24 -5 22 -12z m-1878 -55 c-1 -18
-18 -35 -24 -24 -4 6 -4 16 -1 21 7 12 25 13 25 3z m1870 -18 c0 -8 -9 -15
-20 -15 -11 0 -20 7 -20 15 0 8 9 15 20 15 11 0 20 -7 20 -15z m-2970 -80 c13
-16 6 -35 -14 -35 -18 0 -39 27 -31 40 9 14 31 12 45 -5z m2125 -82 l18 -28
-29 25 c-16 14 -31 26 -33 28 -2 1 3 2 11 2 9 0 24 -12 33 -27z m-2027 -49 c4
-25 -29 -57 -50 -49 -19 7 -41 53 -32 66 3 6 22 9 42 7 28 -2 38 -8 40 -24z
m260 -1 c3 -19 -1 -23 -22 -23 -21 0 -26 5 -26 26 0 21 4 25 23 22 14 -2 23
-11 25 -25z m1730 -3 c16 -1 16 -1 0 -10 -18 -11 -48 -3 -48 12 0 6 7 7 16 4
9 -3 23 -6 32 -6z m-1898 -77 c0 -18 -39 -17 -46 2 -4 8 -3 22 0 31 6 15 8 15
26 -1 11 -10 20 -24 20 -32z m710 -38 c0 -16 -27 -32 -37 -22 -3 4 -3 13 0 22
8 20 37 20 37 0z m-2 -99 c3 -13 -1 -17 -14 -14 -11 2 -20 11 -22 22 -3 13 1
17 14 14 11 -2 20 -11 22 -22z m-140 -43 c-5 -25 -28 -28 -28 -4 0 12 6 21 16
21 9 0 14 -7 12 -17z m2028 -117 c18 -14 18 -16 3 -31 -13 -14 -21 -15 -38 -6
-18 10 -19 14 -8 31 14 24 17 24 43 6z m143 0 c25 -30 -18 -63 -46 -35 -9 9
-9 16 0 30 14 22 30 24 46 5z m115 8 c19 -7 21 -25 4 -42 -17 -17 -53 15 -37
35 13 15 12 15 33 7z m-2320 -257 c16 -12 16 -14 -3 -31 -14 -13 -28 -16 -46
-12 -29 7 -33 30 -7 45 23 14 35 13 56 -2z m-229 -37 c11 -17 -15 -40 -46 -40
-35 0 -48 19 -24 37 22 16 61 17 70 3z m160 -71 c3 -4 -6 -15 -19 -24 -28 -19
-66 -12 -66 11 0 27 70 38 85 13z m-148 -55 c7 -20 -13 -34 -49 -34 -34 0 -46
19 -23 37 26 18 64 17 72 -3z"/>
<path d="M2646 4395 c-68 -28 -137 -90 -166 -150 -34 -70 -31 -75 54 -75 41 0
80 2 88 5 10 4 12 26 9 90 l-3 85 52 0 51 0 -3 32 c-2 17 -7 33 -13 34 -5 2
-37 -7 -69 -21z m-78 -142 c-4 -34 -28 -43 -28 -10 0 25 7 37 22 37 5 0 8 -12
6 -27z"/>
<path d="M1456 4402 c-6 -10 74 -132 86 -132 4 0 13 18 19 40 7 22 16 40 20
40 17 0 18 -21 3 -60 -13 -32 -14 -46 -6 -66 17 -36 29 -29 42 26 7 28 16 50
21 50 12 0 11 -46 -2 -93 -10 -39 -5 -77 12 -77 5 0 16 18 25 40 9 22 20 40
25 40 13 0 11 -16 -8 -71 l-17 -48 29 -42 c17 -24 34 -43 40 -43 15 -1 27 74
22 135 -9 107 -76 210 -162 250 -41 19 -140 26 -149 11z"/>
<path d="M1414 4345 c-13 -45 -11 -124 5 -177 27 -94 125 -171 234 -184 33 -4
57 -3 57 2 0 5 -14 27 -32 48 -30 37 -33 38 -85 34 -46 -4 -53 -2 -53 14 0 15
6 17 40 13 35 -5 40 -3 40 14 0 28 -16 35 -77 32 -43 -2 -53 1 -53 13 0 12 10
16 40 16 26 0 40 5 40 13 0 24 -24 37 -67 37 -49 0 -57 15 -13 25 l30 7 -19
26 c-11 15 -33 43 -49 62 l-30 35 -8 -30z"/>
<path d="M2105 4300 l-29 -30 136 0 c115 0 137 2 142 16 16 42 11 44 -107 44
-113 0 -113 0 -142 -30z"/>
<path d="M2747 4223 c-4 -3 -7 -44 -7 -89 l0 -83 -57 -3 -58 -3 -3 -44 -3 -44
33 7 c91 18 183 92 224 181 38 81 36 85 -49 85 -41 0 -77 -3 -80 -7z m81 -61
c2 -15 -2 -22 -12 -22 -11 0 -16 9 -16 26 0 31 23 28 28 -4z"/>
<path d="M3195 4176 l-40 -12 39 -39 39 -40 29 35 c53 63 54 70 11 69 -21 0
-56 -6 -78 -13z"/>
<path d="M3293 4125 l-43 -55 35 -37 c21 -22 38 -33 43 -28 66 77 112 133 112
138 0 11 -58 37 -82 37 -16 0 -36 -17 -65 -55z"/>
<path d="M3073 4129 c-18 -12 -33 -27 -33 -34 0 -7 20 -35 44 -62 l44 -48 41
40 41 39 -42 43 c-23 24 -47 43 -53 43 -5 0 -25 -10 -42 -21z"/>
<path d="M3414 4070 c-82 -86 -81 -84 -39 -135 20 -25 42 -45 49 -45 14 0 50
112 62 188 9 58 -11 56 -72 -8z"/>
<path d="M2982 4048 c-11 -13 -29 -43 -40 -68 -33 -77 -55 -210 -34 -210 4 0
52 45 107 100 l99 100 -49 50 c-27 27 -52 50 -55 50 -4 0 -16 -10 -28 -22z
m48 -60 c0 -23 -18 -41 -34 -35 -9 4 -16 16 -16 27 0 15 7 20 25 20 14 0 25
-6 25 -12z"/>
<path d="M3185 4004 l-40 -36 39 -35 38 -35 34 33 c19 18 34 38 34 44 0 11
-51 65 -61 65 -3 0 -23 -16 -44 -36z"/>
<path d="M3270 3915 l-35 -36 47 -45 48 -45 39 32 40 32 -42 48 c-23 27 -47
49 -53 49 -5 0 -26 -16 -44 -35z"/>
<path d="M1526 3908 c-3 -18 -8 -72 -11 -120 -5 -71 -3 -88 8 -88 10 0 17 29
26 110 7 60 10 114 6 120 -12 19 -24 10 -29 -22z"/>
<path d="M2160 3876 c0 -11 71 -159 74 -155 2 2 7 34 10 70 l7 65 -39 12 c-43
13 -52 14 -52 8z"/>
<path d="M2107 3803 c-14 -32 -23 -61 -19 -65 8 -8 124 -49 128 -46 5 5 -69
168 -76 168 -4 0 -19 -26 -33 -57z"/>
<path d="M2270 3828 c-1 -7 -5 -46 -9 -87 -8 -69 -7 -79 20 -150 50 -128 62
-152 73 -148 20 6 55 111 56 164 0 74 -32 154 -80 197 -42 38 -60 45 -60 24z
m55 -108 c0 -7 -6 -15 -12 -17 -8 -3 -13 4 -13 17 0 13 5 20 13 18 6 -3 12
-11 12 -18z m-5 -75 c0 -8 -7 -15 -15 -15 -8 0 -15 7 -15 15 0 8 7 15 15 15 8
0 15 -7 15 -15z m58 -7 c-6 -18 -28 -21 -28 -4 0 9 7 16 16 16 9 0 14 -5 12
-12z m-8 -68 c0 -5 -7 -10 -15 -10 -8 0 -15 5 -15 10 0 6 7 10 15 10 8 0 15
-4 15 -10z"/>
<path d="M2083 3660 c13 -105 85 -199 174 -227 29 -9 56 -14 59 -10 10 10 -18
89 -38 109 -10 10 -45 26 -78 35 -33 10 -60 21 -60 26 0 11 26 8 69 -9 57 -23
65 -16 39 35 -24 46 -26 47 -147 86 -24 7 -24 7 -18 -45z"/>
<path d="M673 3623 c-26 -10 -11 -31 86 -124 l99 -95 6 50 c3 28 6 79 6 114
l0 62 -92 -1 c-51 0 -99 -3 -105 -6z m137 -73 c0 -23 -4 -30 -20 -30 -16 0
-20 7 -20 30 0 23 4 30 20 30 16 0 20 -7 20 -30z"/>
<path d="M900 3515 c0 -52 0 -98 0 -101 0 -8 219 -14 224 -6 8 14 -22 70 -61
113 -35 38 -120 89 -150 89 -10 0 -13 -26 -13 -95z m98 -33 c3 -17 -2 -22 -17
-22 -16 0 -21 6 -21 26 0 33 33 30 38 -4z"/>
<path d="M3430 3560 c0 -28 3 -30 35 -30 32 0 35 2 35 30 0 28 -3 30 -35 30
-32 0 -35 -2 -35 -30z"/>
<path d="M3524 3568 c3 -13 5 -26 5 -30 1 -5 14 -8 30 -8 24 0 28 4 27 28 -1
23 -6 27 -34 30 -29 3 -32 1 -28 -20z"/>
<path d="M3425 3481 c-10 -33 5 -51 41 -51 32 0 34 2 34 35 0 33 -2 35 -34 35
-25 0 -36 -5 -41 -19z"/>
<path d="M3530 3464 c0 -32 2 -35 27 -32 44 5 41 68 -3 68 -21 0 -24 -5 -24
-36z"/>
<path d="M1320 3425 c0 -10 65 -105 72 -105 7 0 28 64 28 86 0 7 -10 14 -22
18 -28 7 -78 8 -78 1z"/>
<path d="M1276 3402 c-2 -4 -6 -32 -7 -62 l-3 -55 43 -3 c24 -2 48 1 53 6 5 5
-7 32 -29 65 -36 56 -47 65 -57 49z"/>
<path d="M1446 3397 c-2 -6 -9 -36 -15 -65 -11 -53 -11 -54 28 -108 22 -30 43
-55 47 -55 11 0 54 119 54 151 0 21 -9 33 -37 52 -51 33 -73 40 -77 25z m54
-112 c0 -18 -5 -25 -20 -25 -20 0 -28 28 -13 43 15 16 33 6 33 -18z"/>
<path d="M1313 3253 c-48 -5 -51 -12 -32 -89 l11 -44 72 1 c39 1 81 4 93 7 22
7 22 8 -18 70 -31 46 -47 62 -63 60 -11 -1 -40 -3 -63 -5z m67 -63 c0 -11 -6
-20 -13 -20 -19 0 -27 10 -20 26 8 21 33 17 33 -6z"/>
<path d="M2955 3219 c-18 -7 -18 -8 -2 -8 10 -1 32 -14 48 -30 28 -29 29 -29
29 -6 0 35 -39 59 -75 44z"/>
<path d="M3589 3122 c-43 -44 -79 -81 -79 -84 0 -3 12 -3 28 0 30 6 172 128
172 149 0 33 -46 8 -121 -65z"/>
<path d="M2956 3146 c39 -34 54 -37 54 -11 0 23 -30 45 -62 45 l-31 0 39 -34z"/>
<path d="M3688 3114 c-38 -36 -68 -68 -68 -70 0 -2 11 -4 25 -4 16 0 45 20 87
60 52 49 60 61 48 70 -8 5 -17 10 -20 10 -3 0 -35 -30 -72 -66z"/>
<path d="M2505 3125 c-86 -30 -149 -137 -125 -211 10 -29 14 -33 27 -23 29 25
45 71 40 116 -2 23 -1 43 4 43 5 0 9 -11 9 -25 0 -14 4 -25 9 -25 16 0 33 30
28 50 -6 22 8 37 18 20 5 -9 55 50 55 65 0 8 -24 5 -65 -10z"/>
<path d="M3770 3090 l-55 -49 108 -1 c59 0 107 2 107 5 0 11 -83 95 -94 95 -6
0 -36 -23 -66 -50z"/>
<path d="M2556 3080 c-33 -51 -33 -62 2 -54 21 4 24 3 12 -5 -8 -6 -24 -11
-35 -11 -22 0 -45 -17 -45 -33 0 -5 16 -7 35 -4 20 3 33 2 30 -3 -3 -4 -23
-11 -45 -15 -29 -5 -47 -16 -65 -39 -33 -44 -33 -60 3 -52 49 12 116 61 139
101 29 51 31 155 3 155 -4 0 -19 -18 -34 -40z"/>
<path d="M1757 3093 c-12 -20 -18 -75 -11 -107 8 -44 54 -105 97 -128 17 -10
51 -18 74 -18 37 0 43 3 49 25 26 103 -68 235 -167 235 -21 0 -40 -3 -42 -7z
m107 -43 c7 -7 0 -10 -22 -10 l-33 0 51 -62 c51 -64 59 -85 38 -106 -31 -31
-52 6 -26 47 9 16 4 27 -35 76 -26 31 -44 61 -41 66 6 11 53 4 68 -11z"/>
<path d="M711 3055 l-55 -26 59 -59 c59 -60 60 -60 117 -60 32 0 58 2 58 5 0
2 -22 25 -50 51 -47 44 -55 64 -25 64 8 0 40 -25 73 -55 65 -60 109 -82 126
-65 8 8 4 16 -14 30 -20 15 -23 21 -12 31 10 11 20 5 51 -25 37 -37 80 -50 99
-31 11 12 -87 94 -152 127 -50 26 -76 32 -141 35 -70 4 -87 1 -134 -22z"/>
<path d="M587 2972 c-41 -43 -35 -50 48 -54 41 -2 75 -1 75 2 0 10 -76 80 -86
80 -6 0 -22 -13 -37 -28z"/>
<path d="M11980 2191 c0 -56 -2 -101 -5 -101 -2 0 -20 11 -40 24 -105 71 -251
20 -293 -103 -15 -42 -15 -114 -2 -163 33 -118 180 -175 289 -113 23 14 45 25
47 25 2 0 4 -12 4 -26 0 -23 3 -25 43 -22 l42 3 0 285 0 285 -42 3 -43 3 0
-100z m-49 -157 c77 -74 50 -212 -48 -245 -53 -17 -117 11 -143 62 -55 107 10
227 118 216 30 -3 53 -13 73 -33z"/>
<path d="M9450 1979 l0 -270 43 3 42 3 3 106 3 107 82 4 c140 8 197 55 197
163 0 62 -29 108 -84 134 -36 18 -61 21 -164 21 l-122 0 0 -271z m261 175 c21
-22 27 -63 14 -102 -9 -31 -61 -52 -130 -52 l-55 0 0 91 0 91 75 -4 c59 -3 79
-8 96 -24z"/>
<path d="M10800 2195 c0 -52 -1 -55 -25 -55 -22 0 -25 -4 -25 -35 0 -31 3 -35
25 -35 l25 0 0 -122 c0 -198 17 -228 132 -231 l63 -2 0 35 c0 34 -2 35 -40 38
-63 5 -65 10 -65 153 l0 129 55 0 55 0 0 35 0 35 -55 0 -55 0 0 55 0 55 -45 0
-45 0 0 -55z"/>
<path d="M9988 2136 c-60 -22 -85 -42 -115 -93 -23 -40 -27 -59 -27 -118 0
-71 12 -105 52 -152 69 -80 230 -85 310 -10 73 68 90 197 36 283 -50 81 -169
123 -256 90z m139 -88 c67 -46 79 -164 22 -224 -50 -53 -149 -50 -189 5 -27
39 -35 106 -18 156 26 77 118 108 185 63z"/>
<path d="M10485 2138 c-16 -6 -37 -17 -46 -24 -21 -19 -29 -17 -29 6 0 17 -7
20 -40 20 l-40 0 0 -215 0 -215 40 0 40 0 0 130 c0 142 10 185 51 214 38 26
93 21 131 -13 l33 -29 3 -152 4 -151 41 3 42 3 3 100 c6 195 -13 265 -84 307
-39 23 -110 31 -149 16z"/>
<path d="M11156 2135 c-61 -21 -88 -46 -118 -105 -53 -102 -24 -229 65 -288
36 -24 50 -27 123 -27 75 0 86 3 126 30 59 41 88 101 88 182 0 35 -6 78 -14
96 -20 49 -75 96 -130 112 -61 18 -89 18 -140 0z m128 -80 c45 -21 66 -62 66
-128 0 -100 -71 -161 -161 -137 -52 14 -82 58 -87 129 -3 46 0 62 20 91 40 59
98 75 162 45z"/>
<path d="M12256 2135 c-59 -21 -88 -46 -114 -98 -41 -81 -32 -193 20 -253 66
-75 175 -97 265 -53 38 18 93 78 93 101 0 5 -21 8 -46 8 -37 0 -50 -5 -65 -25
-53 -66 -199 -21 -199 61 l0 24 160 0 160 0 0 50 c0 91 -57 165 -145 189 -52
14 -81 13 -129 -4z m150 -99 c19 -19 34 -43 34 -55 0 -20 -5 -21 -115 -21
-110 0 -115 1 -115 21 0 12 15 36 34 55 29 29 41 34 81 34 40 0 52 -5 81 -34z"/>
<path d="M10470 1385 l0 -285 45 0 45 0 0 285 0 285 -45 0 -45 0 0 -285z"/>
<path d="M9611 1629 c-114 -33 -190 -136 -191 -258 0 -106 43 -186 129 -238
124 -74 292 -44 367 66 13 20 24 39 24 43 0 5 -23 8 -51 8 -43 0 -54 -4 -71
-25 -40 -51 -126 -71 -195 -44 -149 56 -149 312 0 368 69 27 155 7 195 -44 17
-21 28 -25 71 -25 28 0 51 3 51 8 0 18 -51 80 -86 104 -63 44 -165 59 -243 37z"/>
<path d="M10650 1575 c0 -52 -1 -55 -25 -55 -22 0 -25 -4 -25 -35 0 -31 3 -35
25 -35 l25 0 0 -130 c0 -193 16 -220 129 -220 l61 0 0 35 c0 34 -1 35 -38 35
-21 0 -43 5 -50 12 -8 8 -12 54 -12 140 l0 128 50 0 50 0 0 35 0 35 -50 0 -50
0 0 55 0 55 -45 0 -45 0 0 -55z"/>
<path d="M11516 1520 c-16 -5 -39 -19 -52 -31 l-24 -22 0 26 c0 25 -3 27 -45
27 l-45 0 0 -210 0 -210 45 0 45 0 0 130 c0 96 4 139 15 159 14 28 58 51 96
51 16 0 19 8 19 45 0 48 -3 50 -54 35z"/>
<path d="M11715 1516 c-53 -20 -111 -83 -125 -137 -26 -96 13 -214 85 -259 66
-41 154 -39 219 5 l36 24 0 -24 c0 -23 4 -25 45 -25 l45 0 0 210 0 210 -45 0
c-41 0 -45 -2 -45 -25 l0 -25 -38 25 c-49 32 -122 41 -177 21z m153 -86 c111
-68 61 -263 -67 -263 -68 0 -118 47 -128 120 -15 120 97 202 195 143z"/>
<path d="M10012 1351 l3 -170 34 -35 c19 -20 50 -41 69 -47 42 -14 124 -6 154
16 28 19 38 19 38 0 0 -11 11 -15 40 -15 l40 0 0 210 0 210 -40 0 -40 0 0
-117 c0 -65 -5 -135 -11 -156 -18 -68 -71 -96 -139 -74 -57 19 -70 57 -70 215
l0 132 -41 0 -40 0 3 -169z"/>
<path d="M10881 1363 c4 -146 6 -161 28 -197 44 -70 147 -96 226 -56 47 24 55
25 55 5 0 -11 11 -15 40 -15 l40 0 0 210 0 210 -40 0 -40 0 0 -117 c0 -128
-10 -181 -39 -207 -51 -47 -134 -34 -163 24 -14 28 -18 61 -18 168 l0 132 -46
0 -46 0 3 -157z"/>
</g>
</svg>
